<?xml version="1.0" standalone="no"?>
<!DOCTYPE svg PUBLIC "-//W3C//DTD SVG 20010904//EN"
 "http://www.w3.org/TR/2001/REC-SVG-20010904/DTD/svg10.dtd">
<svg version="1.0" xmlns="http://www.w3.org/2000/svg"
 width="500.000000pt" height="500.000000pt" viewBox="0 0 500.000000 500.000000"
 preserveAspectRatio="xMidYMid meet">
<metadata>
Created by potrace 1.16, written by Peter Selinger 2001-2019
</metadata>
<g transform="translate(0.000000,500.000000) scale(0.100000,-0.100000)"
fill="#000000" stroke="none">
<path d="M0 2500 l0 -2500 2500 0 2500 0 0 2500 0 2500 -2500 0 -2500 0 0
-2500z m969 1516 c62 -23 106 -59 138 -114 26 -44 28 -55 28 -157 0 -123 -13
-162 -77 -225 -62 -63 -105 -74 -280 -78 l-158 -4 0 303 0 302 153 -6 c102 -3
166 -10 196 -21z m521 -155 l0 -48 -42 -6 c-83 -11 -108 -72 -108 -263 l0
-104 -60 0 -60 0 0 230 0 230 60 0 60 0 0 -35 0 -36 38 41 c32 32 46 40 75 40
l37 0 0 -49z m165 -311 c42 -46 10 -120 -52 -120 -42 0 -73 30 -73 70 0 62 84
95 125 50z m-951 -732 c8 -18 44 -132 82 -252 l68 -220 62 195 c34 107 70 219
81 249 l18 55 63 3 c34 2 62 0 62 -4 0 -4 -43 -127 -96 -273 -53 -146 -101
-278 -106 -293 -10 -27 -12 -28 -86 -28 l-77 0 -103 293 c-56 160 -102 295
-102 300 0 4 27 7 61 7 58 0 60 -1 73 -32z m624 -270 l2 -298 -60 0 -60 0 0
300 0 301 58 -3 57 -3 3 -297z m412 77 c67 -124 122 -225 123 -225 1 0 2 100
2 222 l0 223 58 3 57 3 0 -209 c0 -115 3 -250 7 -301 l6 -92 -88 3 -88 3 -116
214 -116 214 -3 -216 -2 -217 -60 0 -60 0 0 300 0 300 79 0 79 0 122 -225z
m679 206 c6 -10 49 -126 95 -257 47 -132 91 -258 100 -281 l15 -43 -68 0 -67
0 -27 90 -27 90 -99 0 -99 0 -29 -87 -30 -88 -66 -3 -67 -3 11 28 c6 15 50
138 99 273 49 135 93 257 99 273 10 26 13 27 80 27 59 0 72 -3 80 -19z m417
-106 c35 -66 67 -121 71 -122 4 -2 37 52 73 120 l65 122 63 3 c34 2 62 -1 62
-5 0 -5 -45 -87 -100 -182 l-100 -173 0 -119 0 -119 -60 0 -60 0 0 111 0 111
-105 182 c-58 101 -105 186 -105 190 0 4 30 6 66 4 l66 -3 64 -120z m712 98
c5 -16 50 -143 100 -283 50 -140 94 -263 97 -273 7 -16 2 -18 -60 -15 l-68 3
-30 88 -29 87 -98 0 -98 0 -29 -87 -30 -88 -61 -3 c-34 -2 -62 1 -62 6 0 8
175 498 201 565 11 26 14 27 84 27 71 0 73 -1 83 -27z m392 -118 l0 -146 131
146 130 145 65 0 c35 0 64 -4 64 -9 0 -7 -85 -102 -214 -238 l-39 -42 121
-150 c67 -83 122 -153 122 -156 0 -3 -33 -5 -74 -5 l-74 0 -88 115 c-48 63
-89 115 -92 115 -3 0 -16 -10 -29 -22 -21 -19 -23 -30 -23 -115 l0 -93 -60 0
-60 0 0 300 0 300 60 0 60 0 0 -145z m-2982 -1082 c5 -16 50 -143 100 -283 50
-140 94 -263 97 -273 7 -16 2 -18 -60 -15 l-68 3 -30 88 -29 87 -98 0 -98 0
-29 -87 -30 -88 -61 -3 c-34 -2 -62 1 -62 6 0 8 175 498 201 565 11 26 14 27
84 27 71 0 73 -1 83 -27z m561 17 c80 -13 128 -38 173 -88 48 -53 63 -101 62
-202 0 -107 -27 -173 -92 -230 -64 -57 -117 -70 -289 -70 l-143 0 0 300 0 300
113 0 c61 0 141 -5 176 -10z m461 -290 l0 -300 -60 0 -60 0 0 300 0 300 60 0
60 0 0 -300z m382 85 c32 -115 62 -223 66 -240 7 -25 16 -3 61 160 29 105 59
214 68 243 l15 53 91 -3 92 -3 3 -297 2 -298 -60 0 -60 0 -2 225 -3 226 -66
-223 -66 -223 -68 0 -69 0 -56 190 c-31 105 -62 206 -67 225 -9 27 -11 -16
-12 -192 l-1 -228 -60 0 -60 0 0 293 c0 162 3 297 7 301 4 4 47 5 97 4 l89 -3
59 -210z m638 -18 l5 -229 33 -29 c26 -23 41 -29 80 -29 61 0 93 17 114 60 15
30 18 65 18 248 l0 212 61 0 60 0 -3 -239 -3 -239 -30 -43 c-43 -60 -93 -83
-190 -87 -135 -6 -207 27 -246 113 -16 35 -19 68 -19 268 l0 228 58 -3 57 -3
5 -228z m610 -17 l0 -250 155 0 155 0 0 -50 0 -50 -215 0 -215 0 0 300 0 300
60 0 60 0 0 -250z m820 200 l0 -50 -150 0 -150 0 0 -75 0 -75 140 0 140 0 0
-50 0 -50 -140 0 -140 0 0 -75 0 -75 155 0 155 0 0 -50 0 -50 -215 0 -215 0 0
300 0 300 210 0 210 0 0 -50z"/>
<path d="M740 3741 l0 -201 75 0 c88 0 122 14 161 65 45 59 49 207 6 264 -39
52 -67 64 -157 69 l-85 5 0 -202z"/>
<path d="M1350 1350 l0 -200 84 0 c70 0 88 4 116 23 52 35 75 89 75 177 0 141
-59 200 -202 200 l-73 0 0 -200z"/>
</g>
</svg>
