<svg fill="none" height="100" viewBox="0 0 100 100" width="100" xmlns="http://www.w3.org/2000/svg" xmlns:xlink="http://www.w3.org/1999/xlink"><clipPath id="a"><path d="m0 0h100v100h-100z"/></clipPath><g clip-path="url(#a)"><path d="m0 0h100v100h-100z" fill="#fff"/><path d="m0 0h100v100h-100z" fill="#1c2c63"/><path d="m59.0613 86.8908c-1.5624 1.8748-3.5154 2.8123-5.859 2.8123s-4.1925-.5989-5.5465-1.7968c-1.302-1.1978-1.953-2.7602-1.953-4.6872 0-.677.4166-3.5154 1.2499-8.5151l2.5779-13.9834h-3.281l.1562-1.4062h3.3592c3.8539 0 6.6923-.1562 8.5151-.4687l1.0937-.2344-5.3903 29.5294c1.5624-.1563 2.8644-.8854 3.906-2.1874zm-6.8746-35.779c-1.0937-1.0937-1.6405-2.4217-1.6405-3.9841s.5468-2.8905 1.6405-3.9841c1.0937-1.1458 2.4217-1.7187 3.9841-1.7187s2.8905.5729 3.9842 1.7187c1.1457 1.0936 1.7186 2.4217 1.7186 3.9841s-.5729 2.8904-1.7186 3.9841c-1.0937 1.0937-2.4218 1.6405-3.9842 1.6405s-2.8904-.5468-3.9841-1.6405zm16.1855 8.2026 2.1092-11.5618c3.854 0 6.7184-.1562 8.5932-.4687l1.0156-.2343c-.7291 3.6456-1.5364 7.7338-2.4217 12.2648h9.6869l-.1563 1.4062h-9.765c-2.604 13.4366-3.906 21.535-3.906 24.2953 0 1.6665.8854 2.4998 2.6561 2.4998s3.3852-1.1197 4.8434-3.3591c1.4583-2.2395 2.4999-4.6612 3.1248-7.2652l1.4062.4687c-1.927 8.2287-5.9111 12.343-11.9524 12.343-2.4998 0-4.583-.6771-6.2496-2.0311-1.6665-1.4062-2.4998-3.3332-2.4998-5.7809 0-2.4999 1.0676-9.5567 3.2029-21.1705h-3.8279l.1563-1.4062z" fill="#1fe7c3"/></g></svg>