<svg fill="none" height="100" viewBox="0 0 100 100" width="100" xmlns="http://www.w3.org/2000/svg"><path clip-rule="evenodd" d="m100 0h-100v100h100zm-46.7977 89.7031c2.3436 0 4.2966-.9375 5.859-2.8123l-1.1718-.9375c-1.0416 1.302-2.3436 2.0311-3.906 2.1874l5.3903-29.5294-1.0937.2344c-1.8228.3125-4.6612.4687-8.5151.4687h-3.3592l-.1562 1.4062h3.281l-2.5779 13.9834c-.8333 4.9997-1.2499 7.8381-1.2499 8.5151 0 1.927.651 3.4894 1.953 4.6872 1.354 1.1979 3.2029 1.7968 5.5465 1.7968zm-2.6561-42.5754c0 1.5624.5468 2.8904 1.6405 3.9841s2.4217 1.6405 3.9841 1.6405 2.8905-.5468 3.9842-1.6405c1.1457-1.0937 1.7186-2.4217 1.7186-3.9841s-.5729-2.8905-1.7186-3.9841c-1.0937-1.1458-2.4218-1.7187-3.9842-1.7187s-2.8904.5729-3.9841 1.7187c-1.0937 1.0936-1.6405 2.4217-1.6405 3.9841zm19.9352.6249-2.1092 11.5618h-3.9841l-.1563 1.4062h3.8279c-2.1353 11.6138-3.2029 18.6706-3.2029 21.1705 0 2.4477.8333 4.3747 2.4999 5.7809 1.6665 1.354 3.7497 2.0311 6.2495 2.0311 6.0413 0 10.0255-4.1143 11.9524-12.343l-1.4061-.4687c-.625 2.604-1.6666 5.0257-3.1249 7.2652-1.4582 2.2394-3.0727 3.3591-4.8434 3.3591s-2.6561-.8333-2.6561-2.4998c0-2.7603 1.302-10.8587 3.906-24.2953h9.765l.1563-1.4062h-9.6869c.8853-4.531 1.6926-8.6192 2.4217-12.2648l-1.0156.2343c-1.8748.3125-4.7392.4687-8.5932.4687z" fill="#1c2c63" fill-rule="evenodd"/></svg>