<svg width="300" height="300" viewBox="0 0 300 300" fill="none" xmlns="http://www.w3.org/2000/svg">
<path d="M22.5586 75.4242C-3.29059 112.575 -0.0726233 160.915 19.6735 200.393C20.1422 201.34 20.6344 202.27 21.1196 203.201L22.043 204.98L22.6196 206.004L23.6485 207.846C24.2625 208.927 24.8907 210.002 25.5328 211.078L26.6086 212.85C27.3211 214.001 28.05 215.137 28.7953 216.272L29.7282 217.711C30.7571 219.246 31.8094 220.779 32.8969 222.284L32.9883 222.401L33.5227 223.123C34.4625 224.419 35.4305 225.698 36.4102 226.964L37.4977 228.347C38.3719 229.446 39.2602 230.538 40.1649 231.626L41.1844 232.845C42.3985 234.274 43.6383 235.697 44.9016 237.091L44.9789 237.169L45.1219 237.328C46.3571 238.676 47.6203 239.993 48.9 241.31L50.1118 242.531C51.1032 243.53 52.111 244.512 53.1282 245.489L54.3633 246.661C55.7227 247.943 57.0961 249.199 58.4977 250.427L58.5633 250.479L59.2829 251.093C60.518 252.162 61.7743 253.223 63.0399 254.264L64.5961 255.504C65.6297 256.334 66.675 257.149 67.7274 257.951L69.4008 259.223C70.5633 260.079 71.7329 260.92 72.9141 261.743L74.1938 262.65L74.5453 262.901C75.6657 263.672 76.8118 264.415 77.9579 265.158L79.4344 266.142C81.1922 267.253 82.9735 268.352 84.7758 269.414L86.2524 270.246C87.5766 271.01 88.9102 271.76 90.2602 272.494C90.9915 272.887 91.7414 273.26 92.4774 273.637C93.4313 274.137 94.3782 274.643 95.3485 275.128L96.0118 275.449L97.186 276.016C98.6883 276.734 100.202 277.439 101.733 278.119L102.694 278.55C104.447 279.316 106.214 280.052 107.998 280.755L109.289 281.264C110.939 281.899 112.613 282.527 114.293 283.118L114.921 283.336C116.766 283.98 118.627 284.578 120.502 285.162L121.849 285.565C123.757 286.139 125.644 286.826 127.61 287.189C252.623 309.987 288.938 212.065 288.938 212.065C258.438 251.798 204.302 262.28 153.009 250.61C151.066 250.172 149.182 249.565 147.286 249.005L145.859 248.571C144.007 248.004 142.172 247.406 140.346 246.778L139.589 246.504C137.953 245.93 136.338 245.323 134.728 244.702L133.364 244.165C131.602 243.469 129.848 242.742 128.116 241.983L127.069 241.519C125.581 240.844 124.109 240.164 122.641 239.459L121.362 238.845C120.211 238.284 119.072 237.689 117.938 237.103C117.178 236.702 116.405 236.325 115.652 235.908C114.265 235.165 112.906 234.394 111.548 233.606L110.163 232.833C108.361 231.773 106.582 230.674 104.82 229.559L103.378 228.598C102.101 227.775 100.828 226.936 99.5743 226.069L98.3508 225.209C97.1414 224.353 95.9438 223.488 94.7555 222.609L93.1641 221.405C92.0743 220.573 90.9915 219.734 89.9204 218.869L88.4743 217.709C87.1102 216.586 85.7649 215.461 84.4336 214.303L83.9907 213.93C82.5516 212.667 81.1407 211.371 79.7438 210.07L78.5461 208.92C77.5125 207.935 76.4953 206.944 75.4946 205.927L74.2993 204.734C73.0266 203.43 71.7774 202.111 70.5539 200.773L70.3688 200.576C69.075 199.16 67.8094 197.714 66.5696 196.254L65.5758 195.073C64.6524 193.959 63.736 192.832 62.8407 191.693L61.8399 190.446C60.7641 189.049 59.7118 187.659 58.6828 186.241C30.2063 147.396 19.9735 93.8227 42.7336 49.8258L22.5586 75.4242ZM102.802 44.1211C84.1055 71.0227 85.1227 107.037 99.7055 135.487C102.15 140.257 104.899 144.886 107.974 149.29C110.775 153.305 113.881 158.081 117.598 161.306C118.945 162.79 120.354 164.238 121.793 165.661L122.899 166.751C124.296 168.105 125.714 169.437 127.184 170.73L127.357 170.88L127.399 170.923C129.023 172.348 130.699 173.714 132.403 175.064L133.54 175.95C135.248 177.26 136.99 178.545 138.773 179.773L138.926 179.887C139.713 180.431 140.515 180.937 141.314 181.462L142.446 182.21C143.721 183.028 145.013 183.825 146.325 184.589L146.876 184.908C148.008 185.559 149.154 186.202 150.305 186.825L151.526 187.46C152.32 187.875 153.115 188.299 153.923 188.702L154.287 188.866C155.934 189.677 157.596 190.46 159.293 191.198L160.399 191.653C161.756 192.23 163.127 192.792 164.501 193.317L166.259 193.962C167.508 194.426 168.762 194.848 170.025 195.272L171.729 195.818C173.527 196.376 175.303 197.081 177.176 197.393C273.699 213.384 295.983 139.066 295.983 139.066C275.897 167.995 236.995 181.8 195.485 171.023C193.641 170.538 191.824 170.013 190.017 169.444L188.374 168.912C187.09 168.497 185.815 168.056 184.552 167.595L182.827 166.952C181.439 166.418 180.07 165.87 178.711 165.293L177.602 164.824C175.898 164.084 174.22 163.301 172.568 162.483C171.717 162.068 170.881 161.63 170.041 161.198L168.584 160.448C167.51 159.867 166.441 159.263 165.389 158.644L164.625 158.21C163.317 157.448 162.031 156.661 160.756 155.848L159.588 155.07C158.747 154.526 157.908 153.97 157.083 153.412C155.304 152.184 153.572 150.9 151.866 149.597L150.691 148.671C132.523 134.327 118.118 114.72 111.272 92.4891C104.095 69.4359 105.642 43.5563 118.076 22.5516L102.802 44.1211ZM170.29 20.7352C159.27 36.9539 158.187 57.0961 165.834 75.007C173.899 94.0219 190.423 108.935 209.709 116.011C210.504 116.304 211.301 116.566 212.105 116.841L213.162 117.176C214.298 117.532 215.426 117.947 216.6 118.17C269.897 128.468 284.353 90.8203 288.199 85.2773C275.538 103.509 254.257 107.885 228.145 101.548C226.083 101.048 223.816 100.303 221.829 99.5977C219.279 98.6883 216.766 97.6523 214.327 96.4828C209.691 94.2539 205.27 91.5516 201.173 88.4578C177.809 70.7274 163.294 36.9094 178.54 9.36798" fill="#E66F00"/>
</svg>
