<svg width="300" height="300" viewBox="0 0 300 300" fill="none" xmlns="http://www.w3.org/2000/svg">
<g clip-path="url(#clip0)">
<path d="M207.867 207.196C186.773 250.465 149.835 279.577 100.968 289.148C93.4755 290.99 85.7837 291.89 78.0697 291.829C49.9447 291.829 24.1635 280.071 11.6479 260.812C-5.15683 235.156 -10.8756 180.765 44.5307 140.529C45.6557 146.667 47.9525 155.086 49.476 160.071C38.5994 168.178 29.6965 178.655 23.4369 190.712C13.1244 211.029 14.2729 231.323 26.4838 250.089C34.9213 262.74 48.2807 270.43 65.4604 272.781C86.9182 275.506 108.687 271.393 127.687 261.023C157.476 245.315 177.328 226.55 190.312 200.894C186.64 197.087 184.467 192.075 184.195 186.785C183.998 181.108 186.055 175.584 189.913 171.427C193.771 167.27 199.115 164.818 204.773 164.609H205.57C211.073 164.582 216.376 166.678 220.382 170.464C224.387 174.249 226.789 179.435 227.09 184.949C227.391 190.462 225.569 195.88 221.999 200.083C218.43 204.285 213.387 206.95 207.913 207.525L207.867 207.196ZM275.062 159.695C303.679 192.24 304.453 230.547 293.39 252.769C283.078 273.063 255.89 293.381 219.328 293.381C202.26 293.032 185.469 288.98 170.109 281.506C175.476 277.672 183.093 271.535 187.288 267.702C199.133 272.85 211.881 275.584 224.788 275.744C248.46 275.744 266.39 264.645 277.078 244.351C283.945 230.947 284.343 215.239 277.851 199.154C269.885 178.916 255.709 161.745 237.374 150.124C213.32 133.854 184.962 125.181 155.953 125.221H149.085C147.484 128.932 144.879 132.119 141.565 134.422C138.251 136.724 134.361 138.05 130.335 138.248H129.609C124.04 138.18 118.718 135.936 114.772 131.993C110.826 128.05 108.568 122.72 108.476 117.133C108.385 111.546 110.467 106.144 114.282 102.074C118.097 98.0029 123.343 95.5846 128.906 95.3323H129.679C133.556 95.3352 137.357 96.41 140.664 98.4386C143.972 100.467 146.659 103.371 148.429 106.831H154.546C203.296 106.831 246.093 125.597 275.062 159.695ZM81.1166 213.781C80.7152 209.876 81.6581 205.95 83.7885 202.658C62.4135 165.503 50.976 118.401 68.5307 69.3711C81.1166 32.5221 112.804 7.61905 147.163 7.61905C183.82 7.61905 221.999 39.8119 226.57 101.846C220.851 99.9414 212.507 97.143 207.492 96.1083C206.249 75.8144 189.163 25.2558 148.687 26.0083C134.179 26.408 112.804 33.2981 101.812 47.4545C88.2149 64.3533 80.3051 85.1406 79.2182 106.831C76.6417 136.573 83.5966 166.364 99.0697 191.864C99.9239 191.551 100.834 191.423 101.742 191.488H102.492C108.161 191.385 113.638 193.546 117.719 197.495C121.8 201.444 124.151 206.858 124.253 212.546C124.356 218.234 122.202 223.73 118.266 227.824C114.33 231.919 108.934 234.277 103.265 234.38H102.492C96.9611 234.361 91.6515 232.2 87.6694 228.349C83.6873 224.499 81.34 219.254 81.1166 213.71V213.781Z" fill="#0B9988"/>
</g>
<defs>
<clipPath id="clip0">
<rect width="300" height="300" fill="white"/>
</clipPath>
</defs>
</svg>
